<?xml version="1.0" standalone="no"?>
<!DOCTYPE svg PUBLIC "-//W3C//DTD SVG 20010904//EN"
 "http://www.w3.org/TR/2001/REC-SVG-20010904/DTD/svg10.dtd">
<svg version="1.0" xmlns="http://www.w3.org/2000/svg"
 width="3464.000000pt" height="3464.000000pt" viewBox="0 0 3464.000000 3464.000000"
 preserveAspectRatio="xMidYMid meet">
<metadata>
Created by potrace 1.14, written by Peter Selinger 2001-2017
</metadata>
<g transform="translate(0.000000,3464.000000) scale(0.100000,-0.100000)"
fill="#000000" stroke="none">
<path d="M19327 30254 c-1 -1 -103 -5 -227 -8 -124 -3 -261 -8 -305 -10 -233
-14 -292 -18 -315 -21 -14 -2 -54 -6 -90 -10 -36 -4 -76 -8 -90 -10 -14 -2
-52 -6 -85 -10 -32 -4 -67 -8 -76 -10 -9 -2 -40 -6 -70 -10 -30 -3 -61 -8 -69
-10 -8 -2 -40 -7 -70 -10 -48 -5 -219 -35 -290 -50 -14 -3 -48 -10 -75 -15
-90 -15 -396 -90 -555 -135 -146 -41 -491 -154 -535 -175 -11 -5 -42 -18 -70
-29 -235 -92 -481 -202 -605 -268 -30 -17 -95 -52 -145 -78 -116 -62 -372
-215 -453 -271 -35 -24 -67 -44 -72 -44 -4 0 -10 -3 -12 -7 -2 -5 -23 -21 -48
-38 -161 -107 -490 -371 -683 -549 -72 -65 -351 -343 -392 -390 -269 -302
-440 -519 -607 -766 -67 -100 -164 -251 -183 -285 -7 -11 -42 -74 -80 -140
-139 -243 -306 -599 -394 -840 -19 -49 -39 -103 -46 -120 -64 -152 -206 -674
-251 -925 -3 -14 -7 -32 -9 -40 -3 -8 -7 -33 -10 -55 -12 -77 -16 -99 -21
-104 -2 -2 -4 1139 -4 2536 l0 2540 -1620 0 -1620 0 -2 -3797 -3 -3797 -320
449 c-176 247 -393 551 -482 676 -266 374 -298 419 -638 897 -420 590 -653
918 -766 1075 -49 69 -104 145 -121 170 -43 63 -121 173 -131 185 -4 6 -54 75
-111 155 -323 456 -758 1067 -769 1080 -7 8 -30 42 -52 75 -22 33 -42 62 -46
65 -3 3 -117 163 -253 355 -137 193 -262 368 -278 390 -16 22 -132 184 -257
360 -330 465 -904 1271 -1053 1481 l-129 181 -1543 0 -1542 0 0 -6363 c0
-4449 3 -6364 10 -6367 10 -3 3193 -1 3207 2 3 0 5 1698 5 3771 -1 2074 2
3769 6 3768 4 -2 97 -129 207 -283 110 -154 204 -284 208 -290 10 -12 352
-490 373 -522 8 -12 71 -100 140 -195 69 -95 134 -186 146 -203 11 -16 204
-286 429 -600 225 -313 422 -590 439 -614 55 -78 70 -98 176 -245 81 -113 353
-491 596 -831 65 -91 147 -206 166 -233 13 -18 30 -41 38 -52 15 -19 633 -883
720 -1006 25 -35 177 -247 337 -471 161 -225 461 -643 667 -931 206 -288 381
-533 390 -545 9 -12 55 -76 102 -142 l85 -120 -1405 -3 -1406 -2 -1 -4063 c0
-2234 -2 -4102 -4 -4152 -4 -128 -17 -264 -41 -435 -22 -151 -84 -374 -146
-520 -155 -365 -384 -599 -738 -753 -41 -17 -187 -64 -227 -72 -98 -20 -198
-36 -263 -42 -98 -10 -409 -10 -485 1 -234 32 -471 104 -680 209 -74 36 -206
111 -230 129 -5 5 -48 35 -94 67 -116 82 -216 167 -349 296 -62 60 -117 111
-121 113 -5 2 -23 -25 -41 -60 -18 -35 -63 -117 -100 -183 -37 -66 -84 -151
-105 -190 -21 -38 -93 -169 -160 -290 -67 -121 -141 -256 -165 -300 -23 -44
-46 -84 -50 -90 -4 -5 -23 -39 -43 -75 -30 -57 -144 -264 -219 -400 -14 -25
-40 -72 -58 -105 -18 -33 -36 -64 -40 -70 -4 -5 -27 -46 -50 -90 -24 -44 -66
-120 -93 -170 -27 -49 -62 -112 -77 -140 -15 -27 -36 -66 -47 -85 -20 -35 -56
-100 -112 -202 -16 -29 -52 -95 -80 -146 -28 -50 -51 -95 -51 -100 0 -13 474
-312 496 -312 3 0 18 -9 33 -19 28 -20 266 -141 418 -212 241 -113 633 -255
923 -335 206 -57 557 -132 740 -158 85 -12 281 -35 345 -41 39 -4 86 -8 105
-10 56 -6 193 -17 252 -20 76 -5 624 -5 678 -1 25 2 92 7 150 10 58 4 125 9
150 12 25 2 68 7 95 10 64 6 114 13 145 19 13 2 58 9 100 15 42 6 87 13 101
15 13 3 60 12 104 20 44 9 98 20 120 26 22 6 51 13 65 15 155 27 590 175 807
275 257 119 535 283 728 431 28 21 55 41 60 45 26 19 174 141 210 173 79 69
341 338 401 411 308 376 534 794 707 1309 54 162 143 481 161 580 2 14 16 86
30 160 14 74 28 155 31 180 4 24 8 47 10 50 2 3 6 34 10 70 4 36 8 72 10 80 1
8 6 42 9 75 4 33 8 71 11 85 4 27 18 190 18 228 1 42 14 22 52 -81 96 -260
263 -609 418 -877 125 -215 416 -651 467 -700 3 -3 39 -48 80 -100 317 -405
769 -846 1205 -1176 109 -82 400 -286 422 -295 5 -2 69 -41 143 -85 268 -162
544 -300 868 -435 12 -5 32 -13 45 -19 266 -113 863 -295 1137 -346 178 -34
241 -46 275 -54 22 -5 76 -14 120 -20 44 -6 91 -13 105 -15 14 -2 45 -7 70
-10 25 -3 52 -8 60 -10 8 -2 47 -7 85 -10 39 -3 81 -8 95 -10 81 -12 253 -26
485 -41 55 -3 123 -8 150 -10 61 -4 714 -4 770 0 22 2 96 6 165 10 69 4 143 9
165 11 22 1 81 6 130 10 50 3 97 8 105 10 14 4 42 7 180 19 25 3 77 10 115 16
103 16 115 18 170 25 28 3 57 8 65 10 8 2 31 6 50 9 19 3 44 8 55 10 11 2 90
18 175 34 465 92 1057 278 1440 455 385 176 662 331 986 548 122 81 397 284
454 335 14 12 45 40 71 61 189 159 286 249 473 438 142 143 329 350 422 466
32 41 61 76 65 79 12 11 169 221 236 315 85 119 237 357 283 439 17 32 46 82
62 110 58 97 195 371 261 521 180 411 333 892 412 1298 12 64 16 82 20 85 2 2
4 -1124 4 -2503 0 -1379 2 -2510 5 -2512 7 -8 5662 -6 5811 1 66 3 149 8 185
11 36 3 92 7 125 10 33 3 80 7 105 10 25 3 65 8 89 10 24 2 61 7 82 10 22 3
58 7 82 10 23 3 53 8 67 10 14 2 45 7 70 10 25 4 77 13 115 21 39 8 85 17 104
20 195 31 556 132 811 227 447 166 861 401 1217 692 142 116 394 371 504 510
241 303 409 613 527 971 28 85 85 302 97 369 2 17 7 41 10 55 2 13 7 40 10 60
3 20 7 47 10 60 3 14 7 49 10 80 3 31 7 65 10 78 22 117 23 722 1 839 -2 10
-7 47 -11 83 -17 171 -69 413 -129 612 -38 125 -108 309 -132 345 -8 13 -12
23 -10 23 8 0 -103 208 -163 305 -58 94 -204 292 -267 360 -95 104 -135 145
-209 214 -151 140 -334 277 -535 401 -87 54 -368 201 -450 235 -25 10 -69 29
-99 42 -144 64 -515 190 -680 232 l-75 18 30 15 c16 8 63 28 104 43 67 25 405
187 455 218 283 178 387 258 555 427 192 192 329 378 437 595 44 86 116 250
118 265 1 3 15 48 33 100 55 164 99 364 126 575 29 221 28 686 0 885 -25 172
-70 391 -93 454 -6 14 -13 37 -15 49 -10 52 -121 333 -151 382 -7 11 -33 60
-59 109 -107 202 -245 385 -441 582 -342 345 -729 592 -1223 778 -79 29 -144
55 -146 57 -3 2 847 4 1887 3 1041 0 1897 1 1902 3 8 3 11 425 11 1363 l0
1360 -35 1 c-20 0 -1200 1 -2623 1 -1919 0 -2588 3 -2590 12 -3 9 -2 2408 1
2427 1 3 996 6 2211 6 1216 0 2213 3 2217 6 8 9 7 2406 -2 2415 -3 4 -997 8
-2208 8 -1211 1 -2206 2 -2212 3 -7 1 -9 403 -8 1188 0 654 2 1194 2 1201 1 9
533 12 2624 12 l2623 0 0 1363 -1 1362 -4315 0 -4315 0 -1 -2668 c-1 -1467 -4
-2670 -7 -2673 -3 -3 -1327 -6 -2943 -7 l-2937 -2 -1 -1198 c-1 -714 3 -1201
8 -1205 5 -3 600 -5 1323 -5 l1314 0 -5 -26 c-10 -58 -77 -294 -116 -404 -279
-806 -784 -1350 -1517 -1633 -117 -45 -356 -117 -427 -128 -21 -4 -41 -8 -45
-10 -3 -2 -22 -7 -41 -10 -19 -3 -46 -8 -60 -10 -268 -49 -415 -61 -750 -61
-219 0 -415 8 -477 19 -10 2 -49 7 -88 11 -38 4 -79 9 -90 11 -24 5 -69 13
-110 20 -150 25 -421 105 -625 184 -99 39 -313 148 -415 212 -237 148 -381
263 -580 463 -379 380 -666 833 -850 1340 -43 118 -109 334 -119 388 -2 12
-11 49 -19 82 -14 55 -25 110 -33 160 -1 11 -7 45 -13 75 -10 54 -15 85 -27
185 -3 28 -7 61 -10 75 -4 24 -12 141 -19 265 -6 102 -6 406 0 490 17 243 20
274 40 405 8 52 17 113 20 135 3 22 17 90 30 150 14 61 28 121 31 134 3 14 7
28 9 31 2 4 7 22 10 40 10 55 101 321 151 436 122 288 312 605 493 824 473
572 1025 942 1681 1125 73 20 127 33 260 61 66 14 181 33 230 39 30 3 66 8 80
10 116 19 619 26 815 12 168 -12 329 -35 530 -73 133 -25 501 -128 520 -145 5
-5 16 -9 26 -9 27 0 305 -117 455 -191 162 -81 362 -199 500 -295 80 -55 98
-64 109 -53 11 12 197 276 384 544 90 129 767 1097 791 1130 36 50 172 245
231 330 31 44 105 150 165 235 200 284 196 277 181 283 -7 3 -69 45 -139 93
-339 238 -723 451 -1113 616 -280 119 -629 238 -885 303 -184 46 -274 67 -360
84 -58 11 -127 25 -155 31 -65 13 -80 16 -138 24 -27 4 -58 9 -70 12 -30 5
-88 14 -133 19 -89 11 -140 17 -164 20 -14 2 -54 6 -90 10 -36 3 -81 8 -100
10 -39 5 -169 15 -264 21 -34 2 -151 6 -261 9 -110 4 -224 7 -253 9 -29 1 -54
1 -55 0z m-6912 -8024 c3 -25 10 -61 15 -80 5 -19 19 -82 30 -140 28 -136 28
-138 35 -160 3 -10 8 -27 10 -37 2 -10 16 -63 30 -118 15 -55 28 -104 29 -110
3 -13 48 -158 84 -270 195 -599 517 -1217 919 -1764 39 -52 229 -290 282 -351
227 -263 485 -523 706 -710 55 -47 109 -93 120 -103 81 -76 548 -414 655 -475
75 -42 254 -152 262 -160 4 -4 -4 -8 -20 -8 -15 -1 -54 -4 -87 -7 -33 -4 -87
-9 -120 -12 -78 -6 -151 -14 -195 -21 -19 -3 -51 -7 -70 -9 -19 -2 -53 -7 -75
-10 -22 -4 -51 -8 -65 -10 -76 -10 -122 -18 -185 -30 -38 -7 -87 -16 -107 -19
-21 -3 -58 -10 -83 -16 -25 -6 -62 -13 -83 -16 -20 -3 -45 -7 -54 -10 -9 -3
-25 -7 -35 -9 -1153 -258 -2170 -781 -3023 -1553 -126 -114 -384 -374 -489
-492 -46 -52 -96 -108 -110 -125 -64 -71 -236 -290 -323 -410 -272 -375 -499
-771 -675 -1179 -19 -44 -40 -94 -47 -110 -8 -17 -27 -67 -43 -110 l-30 -80 1
1825 1 1824 1358 0 1357 0 1 2595 c1 1430 5 2577 10 2555 4 -22 11 -60 14 -85z
m13028 -2877 c-1 -1050 -2 -1914 -2 -1920 -1 -10 -227 -13 -1093 -13 l-1093 0
1 -2482 c1 -1366 -2 -2465 -7 -2443 -4 22 -10 49 -13 60 -2 11 -11 54 -20 95
-78 375 -236 857 -401 1225 -56 125 -192 400 -226 455 -32 53 -129 222 -129
225 0 2 -22 36 -48 77 -27 40 -70 107 -97 148 -127 195 -346 479 -544 705
-164 188 -522 540 -671 661 -19 16 -37 31 -40 34 -3 3 -43 37 -90 76 -214 177
-519 391 -777 544 -79 47 -143 87 -143 91 0 3 57 11 128 18 70 7 170 19 222
26 52 8 111 16 130 19 70 9 247 39 296 50 12 2 38 7 59 10 43 7 221 48 307 70
31 9 67 18 80 20 161 35 529 159 791 267 248 103 415 186 697 346 99 56 405
258 485 320 386 299 605 504 930 868 22 24 28 31 125 150 83 103 71 87 143
185 34 47 68 91 75 99 21 22 218 325 287 440 189 319 371 704 486 1031 43 122
107 319 124 383 10 37 21 67 24 67 3 0 5 -858 4 -1907z m2572 -4236 c17 -3 60
-8 97 -11 36 -3 72 -8 80 -10 7 -3 31 -7 53 -10 78 -10 159 -29 275 -64 268
-81 500 -237 635 -427 69 -96 136 -239 161 -340 43 -178 48 -220 48 -415 1
-244 -13 -335 -80 -535 -86 -257 -280 -482 -527 -613 -174 -92 -437 -173 -647
-197 -30 -3 -71 -8 -90 -10 -120 -14 -267 -18 -791 -19 l-585 -2 -1 1334 0
1334 671 -5 c369 -2 685 -7 701 -10z m-11315 -361 c43 -5 73 -8 200 -21 69 -7
326 -58 428 -85 239 -64 504 -163 646 -243 27 -15 52 -27 57 -27 21 0 305
-181 424 -270 319 -240 602 -542 842 -900 318 -474 511 -996 588 -1585 44
-335 39 -852 -10 -1146 -53 -322 -94 -485 -182 -734 -232 -656 -699 -1293
-1258 -1717 -291 -220 -658 -403 -1020 -508 -101 -29 -347 -85 -420 -95 -22
-3 -67 -10 -100 -15 -33 -5 -85 -11 -115 -14 -30 -3 -91 -9 -135 -13 -160 -15
-650 -8 -785 12 -14 2 -52 6 -85 10 -63 7 -104 12 -145 20 -14 3 -41 7 -60 10
-106 18 -353 80 -475 120 -184 60 -452 180 -600 269 -100 60 -208 129 -215
136 -3 3 -21 17 -40 30 -155 106 -385 315 -547 499 -116 130 -122 138 -204
246 -259 343 -456 719 -582 1110 -32 99 -59 192 -59 205 0 3 -7 25 -14 50 -16
55 -59 274 -69 350 -4 30 -8 57 -10 60 -2 3 -6 43 -10 90 -4 47 -8 87 -10 90
-6 9 -18 312 -17 420 1 198 11 342 38 550 85 645 321 1223 714 1745 108 143
127 167 250 298 242 260 475 449 750 609 97 57 345 179 390 193 14 4 30 11 35
15 14 11 271 94 380 124 74 19 146 36 260 61 6 1 33 5 60 9 28 4 61 10 75 12
14 2 52 7 85 10 33 4 63 8 66 10 3 1 57 6 120 10 63 3 116 8 119 11 6 5 581
-4 640 -11z m11345 -4490 c33 -3 89 -8 125 -12 90 -8 252 -33 330 -51 36 -8
74 -17 85 -19 43 -8 184 -53 270 -86 388 -151 687 -405 846 -723 25 -50 51
-108 58 -130 7 -22 16 -49 21 -60 12 -25 47 -168 55 -219 3 -21 7 -41 9 -45 7
-11 20 -217 20 -311 0 -473 -155 -867 -445 -1137 -29 -26 -57 -53 -63 -58 -57
-54 -252 -173 -376 -229 -133 -60 -353 -129 -475 -149 -178 -29 -230 -37 -290
-42 -38 -3 -92 -8 -120 -12 -27 -3 -365 -7 -751 -7 l-701 -2 2 1651 c1 907 3
1650 3 1650 17 4 1355 -4 1397 -9z"/>
</g>
</svg>
