<?xml version="1.0" standalone="no"?>
<!DOCTYPE svg PUBLIC "-//W3C//DTD SVG 20010904//EN"
 "http://www.w3.org/TR/2001/REC-SVG-20010904/DTD/svg10.dtd">
<svg version="1.0" xmlns="http://www.w3.org/2000/svg"
 width="2480.000000pt" height="2480.000000pt" viewBox="0 0 2480.000000 2480.000000"
 preserveAspectRatio="xMidYMid meet">
<metadata>
Created by potrace 1.14, written by Peter Selinger 2001-2017
</metadata>
<g transform="translate(0.000000,2480.000000) scale(0.100000,-0.100000)"
fill="#000000" stroke="none">
<path d="M3810 20913 c-1 -79 -1 -16974 0 -17046 l0 -47 5463 2 5462 3 1 86
c1 48 4 94 7 103 4 9 3 16 -1 16 -8 0 -7 202 2 225 3 8 2 15 -2 15 -9 0 -7
693 2 708 4 7 4 12 -1 12 -9 0 -9 201 1 225 3 8 2 15 -2 15 -8 0 -7 202 2 225
3 8 2 15 -2 15 -8 0 -7 202 2 225 3 8 2 15 -2 15 -8 0 -7 202 2 225 3 8 2 15
-2 15 -8 0 -7 202 2 225 3 8 2 15 -2 15 -5 0 -8 575 -3 720 l1 25 3098 0
c1703 -1 3105 1 3115 3 16 4 17 270 15 5466 l-3 5461 -2338 0 c-2070 0 -2338
-2 -2341 -15 -2 -8 -3 -1063 -3 -2343 l2 -2328 1595 0 1596 0 -1 -97 c-1 -53
3 -105 7 -114 5 -10 5 -18 0 -18 -4 0 -8 -22 -8 -50 0 -27 5 -50 10 -50 4 0 4
-6 -1 -12 -11 -15 -10 -98 1 -116 4 -7 3 -12 -1 -12 -5 0 -9 -22 -9 -50 0 -27
5 -50 10 -50 4 0 4 -6 -1 -12 -11 -15 -10 -98 1 -116 4 -7 4 -12 -1 -12 -4 0
-8 -49 -8 -110 0 -67 4 -110 10 -110 6 0 6 -3 0 -8 -6 -4 -11 -20 -11 -37 0
-16 5 -33 11 -37 7 -5 7 -8 0 -8 -6 0 -11 -16 -11 -35 0 -19 5 -35 11 -35 7 0
7 -3 0 -8 -6 -4 -11 -20 -11 -37 0 -16 5 -33 11 -37 7 -5 7 -8 0 -8 -6 0 -11
-16 -11 -35 0 -19 5 -35 11 -35 7 0 7 -3 0 -8 -6 -4 -11 -20 -11 -37 0 -16 5
-33 11 -37 7 -5 7 -8 0 -8 -6 0 -11 -16 -11 -35 0 -19 5 -35 11 -35 7 0 7 -3
0 -8 -6 -4 -11 -20 -11 -37 0 -16 5 -33 11 -37 7 -6 7 -10 0 -15 -13 -10 -14
-103 -2 -103 6 0 5 -5 0 -12 -11 -15 -10 -98 1 -116 4 -7 3 -12 -1 -12 -5 0
-9 -22 -9 -50 0 -27 5 -50 10 -50 4 0 4 -6 -1 -12 -11 -15 -10 -98 1 -116 4
-7 4 -12 -1 -12 -4 0 -8 -49 -8 -110 0 -67 4 -110 10 -110 6 0 6 -3 0 -8 -14
-9 -14 -65 0 -74 7 -5 7 -8 0 -8 -6 0 -11 -16 -11 -35 0 -19 5 -35 11 -35 7 0
7 -3 0 -8 -6 -4 -11 -20 -11 -37 0 -16 5 -33 11 -37 7 -5 7 -8 0 -8 -6 0 -11
-16 -11 -35 0 -19 5 -35 11 -35 7 0 7 -3 0 -8 -6 -4 -11 -20 -11 -37 0 -16 5
-33 11 -37 7 -5 7 -8 0 -8 -6 0 -11 -16 -11 -35 0 -19 5 -35 11 -35 7 0 7 -3
0 -8 -6 -4 -11 -20 -11 -37 0 -16 5 -33 11 -37 7 -6 7 -10 0 -15 -13 -10 -14
-103 -2 -103 6 0 5 -5 0 -12 -11 -15 -10 -98 1 -116 4 -7 3 -12 -1 -12 -5 0
-9 -22 -9 -50 0 -27 5 -50 10 -50 4 0 4 -6 -1 -12 -11 -15 -10 -98 1 -116 4
-7 4 -12 -1 -12 -4 0 -8 -49 -8 -110 0 -67 4 -110 10 -110 6 0 6 -3 0 -8 -6
-4 -11 -20 -11 -37 0 -16 5 -33 11 -37 7 -5 7 -8 0 -8 -6 0 -11 -16 -11 -35 0
-19 5 -35 11 -35 7 0 7 -3 0 -8 -14 -9 -14 -65 0 -74 7 -5 7 -8 0 -8 -6 0 -11
-16 -11 -35 0 -19 5 -35 11 -35 7 0 7 -3 0 -8 -6 -4 -11 -20 -11 -37 0 -16 5
-33 11 -37 7 -5 7 -8 0 -8 -6 0 -11 -16 -11 -35 0 -19 5 -35 11 -35 7 0 7 -3
0 -8 -14 -9 -14 -65 0 -75 7 -5 7 -9 0 -15 -13 -9 -14 -102 -2 -102 6 0 5 -5
0 -12 -11 -15 -10 -98 1 -116 4 -7 3 -12 -1 -12 -5 0 -9 -23 -9 -50 0 -28 5
-50 10 -50 4 0 4 -6 -1 -12 -5 -7 -8 -35 -6 -63 1 -27 3 -57 2 -65 0 -8 0 -38
0 -67 -1 -44 -4 -51 -22 -55 -12 -2 -377 -3 -812 -3 l-790 0 -2 1555 c0 855
-1 1560 -2 1565 -1 7 -269 10 -783 10 l-783 0 -1 -1556 c0 -856 -3 -1560 -6
-1565 -4 -5 -1225 -9 -3122 -9 l-3116 0 -1 -25 c-2 -33 -1 -88 1 -125 0 -16 0
-54 -2 -83 -2 -30 0 -56 4 -58 5 -3 5 -11 1 -17 -9 -15 -10 -196 -1 -225 5
-13 5 -21 0 -19 -11 8 -8 -177 3 -185 7 -5 7 -8 0 -8 -8 0 -12 -239 -5 -365 0
-16 0 -54 -2 -83 -2 -30 0 -56 4 -58 5 -3 5 -11 1 -17 -9 -15 -7 -286 2 -296
4 -3 705 -6 1558 -6 l1551 0 0 -772 1 -772 -3887 0 c-2206 0 -3890 4 -3893 9
-3 5 -1 11 5 15 7 4 7 12 0 24 -5 10 -7 21 -4 24 5 4 6 92 3 272 -1 22 0 45 0
50 2 9 1 178 0 270 -1 22 0 45 0 50 2 9 1 178 0 270 -1 22 0 45 0 50 2 9 1
178 0 270 -1 22 0 45 0 50 2 9 1 178 0 270 -1 22 0 45 0 50 2 9 1 178 0 270
-1 22 0 45 0 50 2 9 1 178 0 270 -1 22 0 45 0 50 2 9 1 178 0 270 -1 22 0 45
0 50 2 9 1 178 0 270 -1 22 0 45 0 50 2 9 1 178 0 270 -1 22 0 45 0 50 2 9 1
178 0 270 -1 22 0 45 0 50 2 9 1 178 0 270 -1 22 0 45 1 50 1 9 1 96 -1 190 0
22 0 45 1 50 1 9 1 96 -1 190 0 22 0 45 1 50 1 12 0 133 -2 192 -1 24 1 45 4
49 4 3 2 19 -2 35 -5 17 -5 31 1 35 5 3 7 10 3 15 -8 14 -9 103 0 117 4 7 2
12 -5 12 -8 0 -9 3 0 13 6 8 8 16 5 20 -8 8 -9 101 -1 114 4 6 4 19 0 29 -5
15 -8 68 -3 92 1 6 1 95 -1 187 0 22 0 45 1 50 1 12 0 133 -2 192 -1 24 1 45
4 49 4 3 2 19 -2 35 -5 17 -5 31 1 35 5 3 7 10 3 15 -8 14 -9 103 0 117 4 7 2
12 -5 12 -8 0 -9 3 0 13 6 8 8 16 5 20 -8 8 -9 101 -1 114 4 6 4 19 0 29 -5
15 -8 68 -3 92 1 6 1 95 -1 187 0 22 0 45 1 50 1 12 0 133 -2 192 -1 24 1 45
4 49 4 3 2 19 -2 35 -5 17 -5 31 1 35 5 3 7 10 3 15 -8 14 -9 103 0 117 4 7 2
12 -5 12 -8 0 -9 3 0 13 6 8 8 16 5 20 -8 8 -9 101 -1 114 4 6 4 19 0 29 -5
15 -8 68 -3 92 1 6 1 95 -1 187 0 22 0 45 1 50 1 12 0 133 -2 192 -1 24 1 45
4 49 4 3 2 19 -2 35 -5 17 -5 31 1 35 5 3 7 10 3 15 -8 14 -9 103 0 117 4 7 2
12 -5 12 -8 0 -9 3 0 13 6 8 8 16 5 20 -8 8 -9 101 -1 114 4 6 4 19 0 29 -5
15 -8 68 -3 92 1 6 1 95 -1 187 0 22 0 45 1 50 1 12 0 133 -2 192 -1 24 1 45
4 49 4 3 2 19 -2 35 -5 17 -5 31 1 35 5 3 7 10 3 15 -8 14 -9 103 0 117 4 7 2
12 -5 12 -8 0 -9 3 0 13 6 8 8 16 5 20 -8 8 -9 101 -1 114 4 6 4 19 0 29 -5
15 -8 68 -3 92 1 6 1 95 -1 187 0 22 0 45 1 50 1 12 0 133 -2 192 -1 24 1 45
4 49 4 3 2 19 -2 35 -5 17 -5 31 1 35 5 3 7 10 3 15 -8 14 -9 103 0 117 4 7 2
12 -5 12 -8 0 -9 3 0 13 6 8 8 16 5 20 -8 8 -9 101 -1 114 4 6 4 19 0 29 -5
15 -8 68 -3 92 1 6 1 95 -1 187 0 22 0 45 1 50 1 12 0 133 -2 192 -1 24 1 45
4 49 4 3 2 19 -2 35 -5 17 -5 31 1 35 5 3 7 10 3 15 -8 14 -9 103 0 117 4 7 2
12 -5 12 -8 0 -9 3 0 13 6 8 8 16 5 20 -8 8 -9 101 -1 114 4 6 4 19 0 29 -5
15 -8 68 -3 92 1 6 1 95 -1 187 0 22 0 45 1 50 1 12 0 133 -2 192 -1 24 1 45
4 49 4 3 2 19 -2 35 -5 17 -5 31 1 35 5 3 7 10 3 15 -8 14 -9 103 0 117 4 7 2
12 -5 12 -8 0 -9 3 0 13 6 8 8 16 5 20 -8 8 -9 101 -1 114 4 6 4 19 0 29 -5
15 -8 68 -3 92 1 6 1 95 -1 187 0 22 0 45 1 50 1 12 0 133 -2 192 -1 24 1 45
4 49 4 3 2 19 -2 35 -5 17 -5 31 1 35 5 3 7 10 3 15 -8 14 -9 103 0 117 4 7 2
12 -5 12 -8 0 -9 3 0 13 6 8 8 16 5 20 -8 8 -9 101 -1 114 4 6 4 19 0 29 -5
15 -8 68 -3 92 1 6 1 95 -1 187 0 22 0 45 1 50 1 12 0 133 -2 192 -1 24 1 45
4 49 4 3 2 19 -2 35 -5 17 -5 31 1 35 5 3 7 10 3 15 -8 14 -9 103 0 117 4 7 2
12 -5 12 -8 0 -9 3 0 13 6 8 8 16 5 20 -8 8 -9 101 -1 114 4 6 4 19 0 29 -5
15 -8 68 -3 92 1 6 1 95 -1 187 0 22 0 45 1 50 1 9 1 96 -1 190 0 22 0 45 1
50 1 9 1 96 -1 190 0 22 0 45 0 50 2 9 1 178 0 270 -1 22 0 45 0 50 2 9 1 178
0 270 -1 22 0 45 0 50 2 13 1 217 -1 272 -1 24 0 45 3 47 2 2 3 38 1 80 l-4
76 -784 0 -784 0 0 -67z m15665 -4721 c0 -63 3 -102 10 -102 7 0 7 -3 0 -8 -6
-4 -11 -20 -11 -37 0 -16 5 -33 11 -37 7 -5 7 -8 0 -8 -6 0 -11 -16 -11 -35 0
-19 5 -35 11 -35 7 0 7 -3 0 -8 -6 -4 -11 -20 -11 -37 0 -16 5 -33 11 -37 7
-5 7 -8 0 -8 -6 0 -11 -16 -11 -35 0 -19 5 -35 11 -35 7 0 7 -3 0 -8 -6 -4
-11 -20 -11 -37 0 -16 5 -33 11 -37 7 -5 7 -8 0 -8 -6 0 -11 -16 -11 -35 0
-19 5 -35 11 -35 7 0 7 -3 0 -8 -6 -4 -11 -20 -11 -37 0 -16 5 -33 11 -37 7
-6 7 -10 0 -15 -13 -10 -14 -103 -2 -103 6 0 5 -5 0 -12 -11 -15 -10 -98 1
-116 4 -7 3 -12 -1 -12 -5 0 -9 -22 -9 -50 0 -27 5 -50 10 -50 4 0 4 -6 -1
-12 -11 -15 -10 -98 1 -116 4 -7 3 -12 -1 -12 -12 0 -10 -214 2 -222 6 -5 6
-8 -1 -8 -6 0 -10 -12 -9 -27 l2 -28 -811 3 -812 2 1 768 c1 422 3 769 4 772
0 3 364 5 808 5 l808 -1 0 -102z"/>
<path d="M6924 20195 l0 -785 81 0 c437 -3 1477 0 1482 3 5 3 8 355 8 784 l0
778 -786 2 -785 3 0 -785z"/>
<path d="M10039 20958 c-2 -31 -1 -86 1 -123 0 -16 0 -54 -2 -83 -2 -30 0 -56
4 -58 5 -3 5 -11 1 -17 -9 -15 -10 -196 -1 -225 5 -13 5 -21 0 -19 -11 8 -8
-177 3 -185 7 -5 7 -8 0 -8 -8 0 -12 -239 -5 -365 0 -16 0 -54 -2 -83 -2 -30
0 -56 4 -58 5 -3 5 -10 1 -17 -4 -6 -7 -78 -7 -159 l-1 -148 40 0 c431 -3
7767 0 7772 3 5 3 8 355 7 784 l0 778 -3907 3 -3907 2 -1 -22z"/>
<path d="M19479 20973 c-6 -42 -3 -83 5 -83 8 0 8 -3 1 -8 -6 -4 -11 -20 -11
-37 0 -16 5 -33 11 -37 7 -5 7 -8 0 -8 -6 0 -11 -16 -11 -35 0 -19 5 -35 11
-35 7 0 7 -3 0 -8 -6 -4 -11 -20 -11 -37 0 -16 5 -33 11 -37 7 -6 7 -10 0 -15
-13 -10 -14 -103 -2 -103 6 0 5 -5 0 -12 -11 -15 -10 -98 1 -116 4 -7 3 -12
-1 -12 -5 0 -9 -22 -9 -50 0 -27 5 -50 10 -50 4 0 4 -6 -1 -12 -11 -15 -10
-98 1 -116 4 -7 4 -12 -1 -12 -4 0 -8 -49 -8 -110 0 -67 4 -110 10 -110 6 0 6
-3 0 -8 -6 -4 -11 -20 -11 -37 0 -16 5 -33 11 -37 7 -5 7 -8 0 -8 -6 0 -11
-16 -11 -35 0 -19 5 -35 11 -35 7 0 7 -3 0 -8 -6 -4 -11 -20 -11 -37 0 -16 5
-33 11 -37 7 -5 7 -8 0 -8 -6 0 -11 -16 -11 -35 0 -19 5 -35 11 -35 7 0 7 -3
0 -8 -6 -4 -11 -20 -11 -37 0 -16 5 -33 11 -37 7 -5 7 -8 0 -8 -6 0 -11 -16
-11 -35 0 -19 4 -35 9 -35 5 0 4 -6 -2 -14 -8 -10 -9 -16 -1 -21 7 -5 1238 -9
1468 -5 l22 0 0 785 0 785 -745 0 c-410 0 -745 -3 -746 -7z"/>
<path d="M6929 17860 c-1 -3 -3 -2462 -3 -5465 l-2 -5460 781 0 c429 -1 782 2
785 6 3 4 5 2463 5 5466 l0 5458 -783 0 c-430 0 -783 -2 -783 -5z"/>
<path d="M10041 17855 c-9 -12 -8 -26 2 -42 4 -6 4 -14 0 -16 -10 -7 -8 -221
2 -237 5 -7 4 -11 -1 -7 -12 7 -12 -176 1 -185 7 -5 7 -8 0 -8 -8 0 -12 -239
-5 -365 0 -16 0 -54 -2 -83 -2 -30 0 -56 4 -58 5 -3 5 -11 1 -17 -9 -15 -10
-196 -1 -225 5 -13 5 -21 0 -19 -11 8 -8 -177 3 -185 7 -5 7 -8 0 -8 -8 0 -12
-239 -5 -365 0 -16 0 -54 -2 -83 -2 -30 0 -56 4 -58 5 -3 5 -11 1 -17 -9 -15
-10 -196 -1 -225 5 -13 5 -21 0 -19 -11 8 -8 -177 3 -185 7 -5 7 -8 0 -8 -8 0
-12 -239 -5 -365 0 -16 0 -54 -2 -83 -2 -30 0 -56 4 -58 5 -3 5 -11 1 -17 -9
-15 -10 -196 -1 -225 5 -13 5 -21 0 -19 -11 8 -8 -177 3 -185 7 -5 7 -8 0 -8
-8 0 -12 -239 -5 -365 0 -16 0 -54 -2 -83 -2 -30 0 -56 4 -58 5 -3 5 -11 1
-17 -9 -15 -10 -196 -1 -225 5 -13 5 -21 0 -19 -11 8 -8 -177 3 -185 7 -5 7
-8 0 -8 -11 0 -13 -239 -2 -257 4 -7 3 -14 -1 -17 -9 -5 -8 -53 1 -62 3 -3
703 -5 1556 -5 1181 0 1551 -3 1552 -12 3 -37 4 -1505 1 -1517 -3 -14 -176
-15 -1550 -15 -851 1 -1553 -1 -1560 -3 -9 -3 -10 -8 -1 -18 6 -8 8 -14 3 -14
-7 0 -10 -253 -4 -365 0 -16 0 -54 -2 -83 -2 -30 0 -56 4 -58 5 -3 5 -11 1
-17 -9 -15 -10 -196 -1 -225 5 -13 5 -21 0 -19 -11 8 -8 -177 3 -185 7 -5 7
-8 0 -8 -8 0 -12 -239 -5 -365 0 -16 0 -54 -2 -83 -2 -30 0 -56 5 -59 4 -2 4
-10 0 -16 -5 -7 -8 -19 -7 -27 1 -8 2 -21 3 -27 2 -20 4684 -19 4700 0 6 8 8
17 4 20 -9 10 -10 629 0 650 4 9 4 17 0 17 -9 0 -8 201 1 225 3 8 2 15 -2 15
-8 0 -7 202 2 225 3 8 2 15 -2 15 -8 0 -7 202 2 225 3 8 2 15 -2 15 -8 0 -7
202 2 225 3 8 2 15 -2 15 -8 0 -7 202 2 225 3 8 2 15 -2 15 -9 0 -7 693 2 708
4 7 4 12 -1 12 -9 0 -9 201 1 225 3 8 2 15 -2 15 -8 0 -7 202 2 225 3 8 2 15
-2 15 -8 0 -7 202 2 225 3 8 2 15 -2 15 -8 0 -7 202 2 225 3 8 2 15 -2 15 -8
0 -7 202 2 225 3 8 2 15 -2 15 -9 0 -7 1333 2 1348 4 7 4 12 -1 12 -9 0 -9
201 1 225 3 8 2 15 -2 15 -8 0 -7 202 2 225 3 8 2 15 -2 15 -8 0 -7 202 2 225
3 8 2 15 -2 15 -8 0 -7 202 2 225 3 8 2 15 -2 15 -8 0 -7 202 2 225 3 8 2 15
-2 15 -9 0 -7 693 2 708 4 7 4 12 -1 12 -9 0 -9 201 1 225 3 8 2 15 -2 15 -8
0 -7 202 2 225 3 8 2 15 -2 15 -8 0 -7 143 2 165 3 8 2 15 -3 15 -5 0 -7 12
-6 28 l2 27 -2344 0 c-1552 0 -2347 -3 -2352 -10z m3110 -1565 c0 -3 2 -350 2
-773 l2 -767 -772 0 -773 0 0 768 c0 423 2 771 4 773 6 6 1536 5 1537 -1z"/>
<path d="M16319 5392 l-36 -3 1 -782 1 -782 783 -3 782 -2 1 22 c1 13 2 366 2
786 l2 762 -25 0 c-175 3 -1484 4 -1511 2z"/>
<path d="M19493 5312 c-19 -3 -21 -6 -13 -23 6 -10 7 -19 2 -19 -4 0 -8 -22
-8 -50 0 -27 5 -50 10 -50 4 0 4 -6 -1 -12 -11 -15 -10 -98 1 -116 4 -7 3 -12
-1 -12 -5 0 -9 -22 -9 -50 0 -27 5 -50 10 -50 4 0 4 -6 -1 -12 -11 -15 -10
-98 1 -116 4 -7 4 -12 -1 -12 -4 0 -8 -49 -8 -110 0 -67 4 -110 10 -110 6 0 6
-3 0 -8 -6 -4 -11 -20 -11 -37 0 -16 5 -33 11 -37 7 -5 7 -8 0 -8 -6 0 -11
-16 -11 -35 0 -19 5 -35 11 -35 7 0 7 -3 0 -8 -6 -4 -11 -20 -11 -37 0 -16 5
-33 11 -37 7 -6 7 -10 0 -15 -13 -10 -14 -103 -2 -103 6 0 5 -5 0 -12 -11 -15
-10 -98 1 -116 4 -7 3 -12 -2 -12 -11 0 -9 -60 2 -78 4 -7 3 -12 -1 -12 -5 0
-9 -36 -8 -80 l0 -80 745 2 745 3 3 741 2 742 -30 4 c-17 3 -30 0 -30 -6 0 -7
-3 -7 -8 -1 -4 6 -143 10 -380 10 -241 0 -372 -4 -372 -10 0 -7 -3 -7 -8 0 -4
6 -47 10 -97 10 -49 0 -93 -4 -97 -10 -5 -7 -8 -7 -8 0 0 9 -389 15 -447 7z"/>
</g>
</svg>
