<?xml version="1.0" standalone="no"?>
<!DOCTYPE svg PUBLIC "-//W3C//DTD SVG 20010904//EN"
 "http://www.w3.org/TR/2001/REC-SVG-20010904/DTD/svg10.dtd">
<svg version="1.0" xmlns="http://www.w3.org/2000/svg"
 width="488.000000pt" height="488.000000pt" viewBox="0 0 488.000000 488.000000"
 preserveAspectRatio="xMidYMid meet">
<metadata>
Created by potrace 1.14, written by Peter Selinger 2001-2017
</metadata>
<g transform="translate(0.000000,488.000000) scale(0.100000,-0.100000)"
fill="#000000" stroke="none">
<path d="M0 2440 l0 -2440 2440 0 2440 0 0 2440 0 2440 -2440 0 -2440 0 0
-2440z m4350 0 l0 -1930 -1930 0 -1930 0 0 1930 0 1930 1930 0 1930 0 0 -1930z"/>
<path d="M570 2435 l0 -1855 1853 2 1852 3 3 1853 2 1852 -1855 0 -1855 0 0
-1855z m560 145 l0 -1430 715 0 715 0 0 145 0 145 -285 0 -285 0 0 140 0 140
570 0 570 0 0 290 0 290 145 0 145 0 2 -287 3 -288 148 -3 147 -3 0 431 0 430
-292 2 -293 3 -3 428 -2 427 430 0 430 0 0 -1000 0 -1000 -570 0 -570 0 -2
-287 -3 -288 -1000 0 -1000 0 -3 1573 -2 1572 145 0 145 0 0 -1430z m573 1288
l-2 -143 -140 -3 -141 -3 0 146 0 145 143 0 142 0 -2 -142z m1717 -3 l0 -145
-715 0 -715 0 0 145 0 145 715 0 715 0 0 -145z m570 0 l0 -146 -132 3 -133 3
-3 143 -3 142 136 0 135 0 0 -145z m-2285 -1425 l0 -1000 -142 0 -143 0 0
1000 0 1000 143 0 142 0 0 -1000z m1145 285 l0 -715 -430 0 -430 0 0 145 0
145 285 0 285 0 0 140 0 140 -285 0 -285 0 0 430 0 430 430 0 430 0 0 -715z
m570 -1720 l0 -146 -142 3 -143 3 -3 143 -3 142 146 0 145 0 0 -145z m570 -5
l0 -141 -132 3 -133 3 -3 138 -3 137 136 0 135 0 0 -140z"/>
<path d="M3420 3010 l0 -140 150 0 150 0 0 140 0 140 -150 0 -150 0 0 -140z"/>
<path d="M2280 3010 l0 -140 140 0 140 0 0 140 0 140 -140 0 -140 0 0 -140z"/>
</g>
</svg>
