<?xml version="1.0" standalone="no"?>
<!DOCTYPE svg PUBLIC "-//W3C//DTD SVG 20010904//EN"
 "http://www.w3.org/TR/2001/REC-SVG-20010904/DTD/svg10.dtd">
<svg version="1.0" xmlns="http://www.w3.org/2000/svg"
 width="2480.000000pt" height="2480.000000pt" viewBox="0 0 2480.000000 2480.000000"
 preserveAspectRatio="xMidYMid meet">
<metadata>
Created by potrace 1.14, written by Peter Selinger 2001-2017
</metadata>
<g transform="translate(0.000000,2480.000000) scale(0.100000,-0.100000)"
fill="#000000" stroke="none">
<path d="M1890 12400 l0 -10520 10515 0 10515 0 0 10520 0 10520 -10515 0
-10515 0 0 -10520z m20626 -5 l0 -10103 -10103 0 -10103 0 0 10103 0 10104
10103 0 10103 0 0 -10104z"/>
<path d="M3810 20913 c-1 -75 -1 -16814 0 -16986 l0 -107 5463 2 5462 3 1 207
c1 113 4 213 7 222 4 9 3 16 -1 16 -8 0 -7 1883 2 1905 3 8 2 15 -2 15 -5 0
-8 583 -3 720 l1 25 3113 0 3112 0 0 5465 0 5465 -2337 0 c-1286 0 -2339 -2
-2340 -5 -1 -3 -2 -1057 -3 -2342 l-2 -2338 56 0 c31 -1 749 -1 1597 -1 l1540
0 -1 -105 c0 -57 4 -104 8 -104 5 0 3 -8 -4 -17 -12 -15 -12 -16 1 -8 12 7 13
6 3 -6 -11 -14 -9 -61 3 -80 2 -4 1 -10 -4 -13 -10 -6 -8 -118 2 -134 3 -6 2
-13 -4 -17 -9 -6 -5 -58 6 -76 2 -4 1 -10 -4 -13 -10 -6 -8 -118 2 -134 3 -6
3 -13 -2 -15 -9 -7 -9 -178 1 -194 4 -6 3 -14 -1 -17 -10 -6 -10 -46 1 -63 4
-6 3 -14 -1 -17 -10 -6 -10 -46 1 -63 4 -6 3 -14 -1 -17 -10 -6 -10 -46 1 -63
4 -6 3 -14 -1 -17 -10 -6 -10 -46 1 -63 4 -6 3 -14 -1 -17 -10 -6 -10 -46 1
-63 4 -6 3 -14 -1 -17 -10 -6 -10 -46 1 -63 4 -6 3 -14 -1 -17 -7 -4 -9 -61
-2 -61 6 0 5 -47 -2 -51 -8 -5 -2 -59 8 -75 2 -4 1 -10 -4 -13 -10 -6 -8 -118
2 -134 3 -6 2 -13 -4 -17 -9 -6 -5 -58 6 -76 2 -4 1 -10 -4 -13 -10 -6 -8
-118 2 -134 3 -6 3 -13 -2 -15 -9 -7 -9 -178 1 -194 4 -6 3 -14 -1 -17 -10 -6
-10 -46 1 -63 4 -6 3 -14 -1 -17 -10 -6 -10 -46 1 -63 4 -6 3 -14 -1 -17 -10
-6 -10 -46 1 -63 4 -6 3 -14 -1 -17 -10 -6 -10 -46 1 -63 4 -6 3 -14 -1 -17
-10 -6 -10 -46 1 -63 4 -6 3 -14 -1 -17 -10 -6 -10 -46 1 -63 4 -6 3 -14 -1
-17 -7 -4 -9 -61 -2 -61 6 0 5 -47 -2 -51 -8 -5 -2 -59 8 -75 2 -4 1 -10 -4
-13 -10 -6 -8 -118 2 -134 3 -6 2 -13 -4 -17 -9 -6 -5 -58 6 -76 2 -4 1 -10
-4 -13 -10 -6 -8 -118 2 -134 3 -6 3 -13 -2 -15 -9 -7 -9 -178 1 -194 4 -6 3
-14 -1 -17 -10 -6 -10 -46 1 -63 4 -6 3 -14 -1 -17 -10 -6 -10 -46 1 -63 4 -6
3 -14 -1 -17 -10 -6 -10 -46 1 -63 4 -6 3 -14 -1 -17 -10 -6 -10 -46 1 -63 4
-6 3 -14 -1 -17 -10 -6 -10 -46 1 -63 4 -6 3 -14 -1 -17 -10 -6 -10 -46 1 -63
4 -6 3 -14 -1 -17 -7 -4 -9 -61 -2 -61 6 0 5 -47 -2 -51 -8 -5 -2 -59 8 -75 2
-4 1 -10 -4 -13 -10 -6 -8 -118 2 -134 3 -6 2 -13 -4 -17 -9 -6 -5 -58 6 -76
2 -4 1 -10 -4 -13 -10 -6 -8 -118 2 -134 3 -6 2 -13 -3 -16 -5 -4 -8 -25 -6
-49 2 -23 1 -47 -3 -52 -4 -7 -303 -10 -812 -10 l-806 0 1 1550 c0 853 -1
1557 -3 1565 -3 13 -98 15 -785 15 l-782 0 -1 -1556 c0 -856 -3 -1560 -6
-1565 -4 -5 -1226 -9 -3122 -9 l-3116 0 -1 -25 c-4 -103 -3 -150 4 -150 5 0 5
-5 1 -11 -9 -16 -11 -99 -2 -99 4 0 4 -10 0 -23 -9 -26 -8 -207 1 -231 4 -9 3
-15 -1 -12 -4 2 -6 -21 -4 -52 1 -32 2 -70 1 -87 -5 -142 -2 -445 4 -445 5 0
5 -5 1 -11 -9 -16 -11 -99 -2 -99 4 0 4 -10 0 -23 -9 -26 -6 -286 3 -296 4 -3
705 -6 1558 -6 l1551 0 0 -772 1 -773 -3887 0 c-2338 0 -3889 4 -3893 9 -3 6
-1 12 5 16 7 4 7 12 0 24 -5 10 -7 21 -4 24 3 3 5 59 4 124 -1 65 -1 138 -1
163 0 25 0 97 0 160 0 63 0 135 0 160 0 25 0 97 0 160 0 63 0 135 0 160 0 25
0 97 0 160 0 63 0 135 0 160 0 25 0 97 0 160 0 63 0 135 0 160 0 25 0 97 0
160 0 63 0 135 0 160 0 25 0 97 0 160 0 63 0 135 0 160 0 25 0 97 0 160 0 63
0 135 0 160 0 25 0 97 0 160 0 63 0 135 0 160 0 25 0 97 0 160 0 63 0 135 0
160 0 25 0 97 0 160 0 63 0 135 0 160 0 25 0 97 0 160 0 63 0 135 0 160 0 25
0 79 0 120 0 41 0 95 0 120 0 25 0 79 0 120 0 41 0 95 0 120 0 87 0 196 -1
268 0 40 2 75 5 78 3 3 2 17 -3 30 -6 14 -6 26 0 29 5 3 7 11 5 18 -10 25 -12
78 -4 83 4 2 4 16 -1 29 -6 15 -6 27 1 30 5 4 7 11 3 16 -3 6 -6 47 -5 92 0
45 0 118 0 162 0 44 0 100 0 125 0 87 0 196 -1 268 0 40 2 75 5 78 3 3 2 17
-3 30 -6 14 -6 26 0 29 5 3 7 11 5 18 -10 25 -12 78 -4 83 4 2 4 16 -1 29 -6
15 -6 27 1 30 5 4 7 11 3 16 -3 6 -6 47 -5 92 0 45 0 118 0 162 0 44 0 100 0
125 0 87 0 196 -1 268 0 40 2 75 5 78 3 3 2 17 -3 30 -6 14 -6 26 0 29 5 3 7
11 5 18 -10 25 -12 78 -4 83 4 2 4 16 -1 29 -6 15 -6 27 1 30 5 4 7 11 3 16
-3 6 -6 47 -5 92 0 45 0 118 0 162 0 44 0 100 0 125 0 87 0 196 -1 268 0 40 2
75 5 78 3 3 2 17 -3 30 -6 14 -6 26 0 29 5 3 7 11 5 18 -10 25 -12 78 -4 83 4
2 4 16 -1 29 -6 15 -6 27 1 30 5 4 7 11 3 16 -3 6 -6 47 -5 92 0 45 0 118 0
162 0 44 0 100 0 125 0 87 0 196 -1 268 0 40 2 75 5 78 3 3 2 17 -3 30 -6 14
-6 26 0 29 5 3 7 11 5 18 -10 25 -12 78 -4 83 4 2 4 16 -1 29 -6 15 -6 27 1
30 5 4 7 11 3 16 -3 6 -6 47 -5 92 0 45 0 118 0 162 0 44 0 100 0 125 0 87 0
196 -1 268 0 40 2 75 5 78 3 3 2 17 -3 30 -6 14 -6 26 0 29 5 3 7 11 5 18 -10
25 -12 78 -4 83 4 2 4 16 -1 29 -6 15 -6 27 1 30 5 4 7 11 3 16 -3 6 -6 47 -5
92 0 45 0 118 0 162 0 44 0 100 0 125 0 87 0 196 -1 268 0 40 2 75 5 78 3 3 2
17 -3 30 -6 14 -6 26 0 29 5 3 7 11 5 18 -10 25 -12 78 -4 83 4 2 4 16 -1 29
-6 15 -6 27 1 30 5 4 7 11 3 16 -3 6 -6 47 -5 92 0 45 0 118 0 162 0 44 0 100
0 125 0 87 0 196 -1 268 0 40 2 75 5 78 3 3 2 17 -3 30 -6 14 -6 26 0 29 5 3
7 11 5 18 -10 25 -12 78 -4 83 4 2 4 16 -1 29 -6 15 -6 27 1 30 5 4 7 11 3 16
-3 6 -6 47 -5 92 0 45 0 118 0 162 0 44 0 100 0 125 0 87 0 196 -1 268 0 40 2
75 5 78 3 3 2 17 -3 30 -6 14 -6 26 0 29 5 3 7 11 5 18 -10 25 -12 78 -4 83 4
2 4 16 -1 29 -6 15 -6 27 1 30 5 4 7 11 3 16 -3 6 -6 47 -5 92 0 45 0 118 0
162 0 44 0 100 0 125 0 87 0 196 -1 268 0 40 2 75 5 78 3 3 2 17 -3 30 -6 14
-6 26 0 29 5 3 7 11 5 18 -10 25 -12 78 -4 83 4 2 4 16 -1 29 -6 15 -6 27 1
30 5 4 7 11 3 16 -3 6 -6 47 -5 92 0 45 0 118 0 162 0 44 0 100 0 125 0 25 0
79 0 120 0 41 0 149 1 240 0 91 0 217 -1 280 0 63 0 135 0 160 0 25 0 97 0
160 0 63 0 135 0 160 0 25 0 97 0 160 -1 133 0 245 2 257 1 4 1 27 0 51 l-1
42 -785 0 -785 0 0 -67z m15665 -4708 c0 -50 4 -95 8 -102 4 -6 3 -14 -1 -17
-10 -6 -10 -46 1 -63 4 -6 3 -14 -1 -17 -10 -6 -10 -46 1 -63 4 -6 3 -14 -1
-17 -10 -6 -10 -46 1 -63 4 -6 3 -14 -1 -17 -10 -6 -10 -46 1 -63 4 -6 3 -14
-1 -17 -10 -6 -10 -46 1 -63 4 -6 3 -14 -1 -17 -10 -6 -10 -46 1 -63 4 -6 3
-14 -1 -17 -7 -4 -9 -61 -2 -61 6 0 5 -47 -2 -51 -8 -5 -2 -59 8 -75 2 -4 1
-10 -4 -13 -10 -6 -8 -118 2 -134 3 -6 2 -13 -4 -17 -9 -6 -5 -58 6 -76 2 -4
1 -10 -4 -13 -7 -4 -9 -101 -2 -131 1 -5 1 -12 0 -15 -6 -13 -5 -192 2 -196 4
-3 4 -15 -1 -27 -4 -12 -6 -28 -4 -34 4 -10 -162 -13 -809 -13 l-814 0 1 768
c1 422 3 769 4 772 0 3 364 5 808 5 l808 -1 0 -89z"/>
<path d="M6924 20195 l0 -785 76 0 c746 -2 1482 0 1488 4 4 2 7 354 7 783 l0
778 -786 2 -785 3 0 -785z"/>
<path d="M10039 20958 c-4 -96 -3 -148 4 -148 5 0 5 -5 1 -11 -9 -16 -11 -99
-2 -99 4 0 4 -10 0 -22 -9 -27 -8 -208 1 -232 4 -9 3 -15 -1 -12 -4 2 -6 -21
-4 -52 1 -32 2 -70 1 -87 -5 -142 -2 -445 4 -445 5 0 5 -5 1 -11 -10 -17 -11
-99 -1 -99 4 0 5 -5 1 -12 -4 -6 -8 -80 -8 -165 l-1 -153 45 0 c25 0 1781 0
3903 0 2122 0 3862 2 3865 4 4 2 7 354 7 783 l-1 778 -3907 3 -3907 2 -1 -22z"/>
<path d="M19479 20973 c-5 -42 -5 -65 3 -69 4 -3 5 -11 1 -17 -11 -17 -11 -57
-1 -63 4 -3 5 -11 1 -17 -11 -17 -11 -57 -1 -63 5 -3 5 -11 0 -17 -7 -10 -9
-52 -2 -59 6 -9 5 -50 -2 -54 -8 -5 -2 -59 8 -75 2 -4 1 -10 -4 -13 -10 -6 -8
-118 2 -134 3 -6 2 -13 -4 -17 -9 -6 -5 -58 6 -76 2 -4 1 -10 -4 -13 -7 -4 -9
-101 -2 -131 1 -5 1 -12 0 -15 -6 -14 -4 -192 2 -196 5 -3 5 -11 1 -17 -11
-17 -11 -57 -1 -63 4 -3 5 -11 1 -17 -11 -17 -11 -57 -1 -63 4 -3 5 -11 1 -17
-11 -17 -11 -57 -1 -63 4 -3 5 -11 1 -17 -11 -17 -11 -57 -1 -63 4 -3 5 -11 1
-17 -11 -17 -11 -57 -1 -63 4 -3 5 -11 1 -17 -11 -17 -11 -57 -1 -63 4 -3 4
-14 -2 -24 -6 -11 -6 -21 -1 -25 7 -4 718 -7 1428 -5 l63 0 0 785 -1 785 -744
0 c-410 0 -745 -3 -746 -7z"/>
<path d="M6926 17860 c-3 -5 0 -10911 3 -10920 1 -7 1561 -7 1562 0 4 17 3
10913 -1 10919 -6 8 -1561 9 -1564 1z"/>
<path d="M10037 17843 c-2 -13 0 -23 4 -23 5 0 5 -10 1 -22 -9 -27 -8 -208 1
-232 4 -9 3 -15 -1 -12 -4 2 -6 -21 -4 -52 1 -32 2 -70 1 -87 -5 -142 -2 -445
4 -445 5 0 5 -5 1 -11 -9 -16 -11 -99 -2 -99 4 0 4 -10 0 -22 -9 -27 -8 -208
1 -232 4 -9 3 -15 -1 -12 -4 2 -6 -21 -4 -52 1 -32 2 -70 1 -87 -5 -142 -2
-445 4 -445 5 0 5 -5 1 -11 -9 -16 -11 -99 -2 -99 4 0 4 -10 0 -22 -9 -27 -8
-208 1 -232 4 -9 3 -15 -1 -12 -4 2 -6 -21 -4 -52 1 -32 2 -70 1 -87 -5 -142
-2 -445 4 -445 5 0 5 -5 1 -11 -9 -16 -11 -99 -2 -99 4 0 4 -10 0 -22 -9 -27
-8 -208 1 -232 4 -9 3 -15 -1 -12 -4 2 -6 -21 -4 -52 1 -32 2 -70 1 -87 -5
-142 -2 -445 4 -445 5 0 5 -5 1 -11 -9 -16 -11 -99 -2 -99 4 0 4 -10 0 -22 -9
-27 -8 -208 1 -232 4 -9 3 -15 -1 -12 -4 2 -6 -21 -4 -52 3 -72 3 -46 1 -267
0 -104 0 -195 0 -201 1 -14 49 -25 57 -12 3 4 10 6 15 3 5 -4 691 -6 1524 -6
1156 0 1515 -3 1516 -12 3 -37 4 -1505 1 -1517 -3 -13 -21 -16 -100 -15 -53 0
-103 4 -111 9 -9 6 -12 5 -8 -1 8 -12 -292 -11 -312 1 -9 6 -12 5 -8 -1 8 -12
-292 -11 -312 1 -9 6 -12 5 -8 0 7 -13 -1573 -12 -1592 0 -9 6 -12 5 -8 -1 8
-12 -292 -11 -312 1 -9 6 -12 5 -8 -1 4 -6 -51 -9 -154 -9 -88 1 -165 -2 -171
-5 -13 -8 -18 -419 -5 -419 5 0 5 -5 1 -11 -9 -16 -11 -99 -2 -99 4 0 4 -10 0
-22 -9 -27 -8 -208 1 -232 4 -9 3 -15 -1 -12 -4 2 -6 -21 -4 -52 1 -32 2 -70
1 -87 -5 -142 -2 -445 4 -445 5 0 5 -5 1 -11 -9 -16 -11 -99 -2 -99 4 0 4 -10
0 -22 -5 -13 -7 -29 -6 -35 1 -7 2 -18 3 -23 1 -7 785 -10 2349 -10 l2349 0 0
939 c0 517 4 944 7 950 4 6 4 11 -1 11 -9 0 -9 1881 1 1905 3 8 2 15 -2 15 -8
0 -7 2522 2 2545 3 8 2 15 -2 15 -4 0 -6 323 -6 718 l1 717 -2348 0 -2348 0
-4 -22z m3114 -1563 c0 -8 2 -356 2 -772 l2 -758 -772 0 -773 0 0 768 c0 423
2 771 4 773 2 2 349 4 770 4 674 0 766 -2 767 -15z"/>
<path d="M16359 5392 l-76 -3 1 -782 1 -782 783 -3 782 -2 1 22 c4 102 3 1532
-2 1539 -5 9 -1301 18 -1490 11z"/>
<path d="M19493 5312 c-19 -3 -21 -7 -13 -27 6 -15 6 -27 0 -30 -9 -6 -5 -59
6 -76 2 -4 1 -10 -4 -13 -10 -6 -8 -118 2 -134 3 -6 2 -13 -4 -17 -9 -6 -5
-58 6 -76 2 -4 1 -10 -4 -13 -10 -6 -8 -118 2 -134 3 -6 3 -13 -2 -15 -9 -7
-9 -178 1 -194 4 -6 3 -14 -1 -17 -10 -6 -10 -46 1 -63 4 -6 3 -14 -1 -17 -10
-6 -10 -46 1 -63 4 -6 3 -14 -1 -17 -7 -4 -9 -61 -2 -61 6 0 5 -47 -2 -51 -8
-5 -2 -59 8 -75 2 -4 1 -10 -4 -13 -10 -6 -8 -118 2 -134 3 -6 2 -13 -4 -17
-10 -6 -7 -45 5 -65 3 -5 2 -10 -2 -10 -5 0 -9 -36 -8 -80 l0 -80 745 2 745 3
2 743 c3 701 2 742 -15 743 -77 2 -1442 3 -1459 1z"/>
</g>
</svg>
