<?xml version="1.0" standalone="no"?>
<!DOCTYPE svg PUBLIC "-//W3C//DTD SVG 20010904//EN"
 "http://www.w3.org/TR/2001/REC-SVG-20010904/DTD/svg10.dtd">
<svg version="1.0" xmlns="http://www.w3.org/2000/svg"
 width="1504.000000pt" height="1504.000000pt" viewBox="0 0 1504.000000 1504.000000"
 preserveAspectRatio="xMidYMid meet">
<metadata>
Created by potrace 1.14, written by Peter Selinger 2001-2017
</metadata>
<g transform="translate(0.000000,1504.000000) scale(0.100000,-0.100000)"
fill="#000000" stroke="none">
<path d="M2608 11402 l-48 -3 0 -82 c0 -45 -1 -355 0 -689 l0 -607 -69 52
c-118 89 -301 171 -426 192 -22 3 -62 10 -90 15 -96 16 -286 9 -420 -14 -136
-24 -308 -101 -430 -191 -290 -214 -457 -537 -492 -950 -14 -161 -6 -412 17
-525 6 -30 13 -66 16 -80 14 -74 71 -232 114 -318 82 -160 190 -288 336 -398
118 -89 300 -171 424 -190 19 -3 38 -8 42 -10 12 -8 160 -18 248 -18 296 2
549 97 749 283 24 23 46 40 48 38 2 -3 21 -62 41 -133 l38 -129 362 -3 362 -2
0 1880 0 1880 -32 0 c-232 3 -754 4 -790 2z m-349 -1875 c178 -62 302 -206
350 -405 25 -103 25 -278 0 -375 -56 -218 -218 -380 -419 -419 -162 -32 -311
-2 -435 87 -69 50 -102 85 -150 164 -94 152 -117 395 -55 592 57 184 210 331
388 373 91 21 233 14 321 -17z"/>
<path d="M5128 10285 c-2 -2 -32 -6 -68 -9 -36 -3 -113 -17 -171 -30 -390 -89
-721 -346 -894 -694 -98 -197 -144 -414 -139 -657 9 -489 219 -866 619 -1112
155 -96 377 -175 560 -199 28 -3 53 -8 56 -10 10 -6 200 -17 293 -16 92 0 266
11 275 16 3 2 33 7 66 11 32 3 62 8 65 10 4 2 22 7 40 10 18 3 81 21 139 40
158 51 323 141 448 243 l42 34 -32 26 c-18 15 -34 29 -37 32 -3 3 -25 21 -50
40 -25 19 -47 37 -50 40 -5 5 -373 304 -396 322 -8 5 -31 -8 -64 -36 -118
-101 -278 -158 -445 -160 -187 -1 -304 33 -412 120 -90 73 -176 227 -199 357
l-5 27 940 0 c889 0 941 1 942 18 3 49 -2 315 -6 354 -15 150 -35 251 -75 369
-110 329 -358 598 -677 738 -185 80 -387 119 -620 119 -78 0 -143 -2 -145 -3z
m270 -629 c190 -39 315 -163 371 -365 11 -41 18 -77 16 -80 -7 -7 -1006 -7
-1010 0 -9 14 64 199 99 252 42 63 112 130 163 153 107 51 238 66 361 40z"/>
<path d="M8539 10285 c-2 -2 -17 -5 -34 -8 -200 -33 -383 -147 -503 -315 l-47
-66 -50 156 c-27 86 -53 160 -57 164 -8 7 -718 13 -749 6 -16 -3 -17 -106 -17
-1293 l0 -1289 437 0 437 0 0 743 c1 723 2 744 22 830 60 244 178 351 380 342
118 -4 197 -59 249 -172 55 -119 58 -174 58 -1020 l-1 -723 437 0 437 0 1 706
c0 626 3 760 16 839 18 110 70 228 124 282 99 98 287 120 403 46 74 -46 133
-158 154 -293 4 -25 8 -389 8 -810 l1 -765 435 -3 435 -2 -1 827 c-1 456 -4
855 -8 888 -13 132 -17 158 -36 237 -93 395 -317 617 -690 683 -63 11 -314 14
-380 4 -232 -34 -410 -115 -587 -267 -66 -57 -72 -60 -78 -41 -4 12 -42 56
-86 100 -66 66 -95 86 -181 128 -57 27 -125 54 -153 60 -27 6 -61 14 -75 17
-28 7 -296 15 -301 9z"/>
<path d="M12809 10286 c-2 -2 -35 -7 -72 -10 -295 -27 -597 -160 -810 -356
-207 -192 -351 -444 -393 -690 -3 -14 -7 -31 -9 -38 -24 -67 -24 -416 0 -532
2 -14 10 -50 16 -80 45 -216 169 -439 339 -610 279 -278 636 -414 1085 -412
449 1 809 142 1089 426 178 181 296 410 343 669 23 129 23 419 -1 542 -42 212
-127 405 -249 562 -41 53 -204 208 -267 255 -183 135 -420 228 -670 263 -50 7
-395 16 -401 11z m322 -753 c281 -96 435 -399 379 -746 -36 -226 -164 -393
-362 -469 -39 -15 -84 -21 -171 -24 -106 -4 -126 -1 -193 21 -96 32 -145 64
-220 141 -117 121 -170 275 -167 489 5 308 180 545 448 603 65 15 223 6 286
-15z"/>
<path d="M1305 7032 c-213 -14 -431 -134 -531 -289 -94 -147 -106 -341 -30
-478 34 -63 58 -90 127 -147 66 -53 188 -114 319 -158 219 -75 282 -131 267
-240 -7 -55 -32 -86 -93 -116 -45 -22 -68 -27 -128 -26 -122 1 -218 42 -325
137 l-53 49 -30 -35 c-16 -19 -76 -87 -134 -151 l-103 -116 36 -33 c58 -51
167 -118 242 -148 131 -55 257 -78 430 -79 146 -1 228 16 349 74 203 98 302
255 302 482 0 240 -120 377 -433 498 -238 91 -296 124 -328 184 -58 107 37
213 190 213 100 0 190 -34 283 -105 44 -34 26 -48 178 132 57 69 108 127 112
130 10 7 -19 32 -86 75 -126 81 -277 132 -416 141 -47 3 -89 6 -95 7 -5 1 -28
1 -50 -1z"/>
<path d="M2100 6793 l0 -191 225 1 c219 2 225 1 226 -18 0 -11 1 -317 2 -680
l2 -660 230 0 230 0 1 673 c0 369 3 675 7 678 3 3 104 6 224 6 l218 0 0 183
c0 101 -4 187 -9 192 -4 4 -311 8 -682 8 l-674 0 0 -192z"/>
<path d="M4081 6975 c-5 -5 -100 -242 -211 -525 -111 -283 -263 -668 -336
-855 -74 -186 -134 -343 -134 -347 0 -4 111 -8 248 -8 l247 0 51 153 51 152
324 0 324 0 51 -150 51 -150 247 -3 c135 -1 246 0 246 2 0 11 -358 924 -385
983 -8 17 -15 34 -15 38 0 3 -52 137 -115 298 -64 161 -126 317 -137 347 -12
30 -26 59 -30 65 -12 14 -467 14 -477 0z m449 -1082 c0 -2 -94 -3 -209 -3
l-209 0 99 298 c54 163 102 304 105 312 4 10 210 -574 214 -607z"/>
<path d="M5459 6965 c-1 -24 -1 -1670 0 -1702 l1 -23 220 0 220 0 2 515 3 514
36 -52 c38 -56 504 -706 626 -874 l74 -103 212 0 213 0 -2 868 c-1 477 -2 869
-3 872 -1 4 -409 5 -433 1 -4 0 -8 -231 -8 -512 0 -282 -1 -513 -2 -514 -2 -2
-97 130 -213 292 -115 162 -223 314 -240 337 -16 23 -50 71 -75 107 -24 35
-48 69 -53 74 -4 6 -42 57 -83 115 l-74 105 -210 0 c-204 0 -210 0 -211 -20z"/>
<path d="M7439 6970 c-1 -20 -1 -1701 0 -1718 1 -11 76 -13 424 -9 390 4 428
6 507 25 272 69 471 224 580 454 73 153 98 319 77 509 -37 329 -247 589 -563
697 -138 47 -215 54 -636 56 -343 2 -388 0 -389 -14z m781 -395 c87 -23 154
-60 215 -120 89 -88 125 -196 120 -358 -3 -122 -8 -144 -45 -222 -38 -80 -109
-149 -196 -191 -88 -42 -142 -53 -291 -56 l-118 -2 -2 485 -3 486 128 -2 c81
-2 150 -9 192 -20z"/>
<path d="M9811 6975 c-8 -10 -32 -70 -246 -617 -53 -134 -102 -257 -110 -275
-8 -17 -15 -36 -15 -42 0 -6 -4 -19 -10 -29 -14 -23 -300 -753 -300 -764 0 -4
111 -7 248 -6 l247 3 51 150 51 150 324 0 324 0 51 -150 50 -150 247 -3 c136
-1 247 1 247 4 0 7 -237 614 -265 679 -7 17 -57 143 -110 280 -54 138 -103
264 -110 280 -13 29 -113 282 -170 430 l-27 70 -235 0 c-146 0 -237 -4 -242
-10z m330 -725 c45 -135 90 -271 100 -302 l17 -58 -208 0 -209 0 100 297 c54
163 99 303 99 312 0 39 25 -22 101 -249z"/>
<path d="M11179 6965 c-1 -27 -1 -1696 0 -1712 1 -10 54 -13 231 -13 l230 0 1
28 c0 15 0 158 0 317 l0 291 30 2 c28 2 35 -6 112 -125 45 -70 114 -176 152
-235 39 -59 94 -146 124 -193 l54 -85 283 0 284 0 -135 183 c-183 246 -303
409 -346 471 l-36 51 61 29 c127 61 221 158 268 278 28 71 34 237 12 323 -56
217 -234 356 -509 401 -22 4 -214 7 -427 8 -383 2 -388 1 -389 -19z m665 -329
c26 -4 61 -14 79 -21 134 -58 165 -245 57 -342 -49 -43 -112 -60 -232 -62
l-107 -2 1 213 c0 117 1 215 3 218 4 7 143 4 199 -4z"/>
<path d="M12909 6940 c0 -60 0 -1615 0 -1663 l1 -38 393 2 c475 2 557 13 732
97 348 168 523 533 455 945 -17 98 -79 266 -110 297 -3 3 -18 24 -34 48 -100
147 -289 272 -486 321 -127 31 -173 34 -577 35 l-373 2 -1 -46z m781 -364
c206 -53 324 -203 338 -429 15 -259 -116 -448 -349 -501 -56 -13 -179 -21
-276 -17 l-33 1 0 478 c0 263 2 481 5 484 12 12 253 0 315 -16z"/>
</g>
</svg>
