<?xml version="1.0" standalone="no"?>
<!DOCTYPE svg PUBLIC "-//W3C//DTD SVG 20010904//EN"
 "http://www.w3.org/TR/2001/REC-SVG-20010904/DTD/svg10.dtd">
<svg version="1.0" xmlns="http://www.w3.org/2000/svg"
 width="1504.000000pt" height="1504.000000pt" viewBox="0 0 1504.000000 1504.000000"
 preserveAspectRatio="xMidYMid meet">
<metadata>
Created by potrace 1.14, written by Peter Selinger 2001-2017
</metadata>
<g transform="translate(0.000000,1504.000000) scale(0.100000,-0.100000)"
fill="#000000" stroke="none">
<path d="M2608 11402 l-48 -3 0 -82 c0 -45 -1 -355 0 -689 l0 -607 -69 52
c-187 140 -391 207 -651 212 -125 3 -181 -1 -285 -19 -136 -24 -308 -101 -430
-191 -290 -214 -457 -537 -492 -950 -14 -161 -6 -412 17 -525 6 -30 13 -66 16
-80 14 -74 71 -232 114 -318 82 -160 190 -288 336 -398 118 -89 300 -171 424
-190 19 -3 38 -8 42 -10 12 -8 160 -18 248 -18 296 2 549 97 749 283 24 23 46
40 48 38 2 -3 21 -62 41 -133 l38 -129 362 -3 362 -2 0 1880 0 1880 -32 0
c-232 3 -754 4 -790 2z m-349 -1875 c178 -62 302 -206 350 -405 25 -103 25
-278 0 -375 -56 -218 -218 -380 -419 -419 -162 -32 -311 -2 -435 87 -69 50
-102 85 -150 164 -94 152 -117 395 -55 592 57 184 210 331 388 373 91 21 233
14 321 -17z"/>
<path d="M5128 10285 c-2 -2 -32 -6 -68 -9 -36 -3 -113 -17 -171 -30 -390 -89
-721 -346 -894 -694 -98 -197 -144 -414 -139 -657 9 -489 219 -866 619 -1112
155 -96 377 -175 560 -199 28 -3 53 -8 56 -10 10 -6 200 -17 293 -16 92 0 266
11 275 16 3 2 33 7 66 11 32 3 62 8 65 10 4 2 22 7 40 10 18 3 81 21 139 40
158 51 323 141 448 243 l42 34 -32 26 c-18 15 -34 29 -37 32 -3 3 -25 21 -50
40 -25 19 -47 37 -50 40 -5 5 -373 304 -396 322 -8 5 -31 -8 -64 -36 -118
-101 -278 -158 -445 -160 -187 -1 -304 33 -412 120 -90 73 -176 227 -199 357
l-5 27 940 0 c889 0 941 1 942 18 3 49 -2 315 -6 354 -15 150 -35 251 -75 369
-110 329 -358 598 -677 738 -185 80 -387 119 -620 119 -78 0 -143 -2 -145 -3z
m270 -629 c190 -39 315 -163 371 -365 11 -41 18 -77 16 -80 -8 -7 -1006 -7
-1010 0 -9 14 64 199 99 252 42 63 112 130 163 153 107 51 238 66 361 40z"/>
<path d="M8539 10285 c-2 -2 -17 -5 -34 -8 -148 -24 -283 -90 -390 -190 -44
-41 -96 -100 -115 -130 -19 -31 -38 -56 -41 -57 -3 0 -27 69 -53 153 -27 83
-52 156 -57 161 -8 9 -714 16 -750 8 -16 -3 -17 -106 -17 -1293 l0 -1289 437
0 437 0 0 743 c1 723 2 744 22 830 60 244 179 352 381 342 118 -5 197 -60 248
-172 55 -119 58 -174 58 -1020 l-1 -723 437 0 437 0 1 706 c0 626 3 760 16
839 18 110 70 228 124 282 99 98 287 120 403 46 74 -46 133 -158 154 -293 4
-25 8 -389 8 -810 l1 -765 435 -3 435 -2 -1 827 c-1 456 -4 855 -8 888 -13
132 -17 158 -36 240 -53 228 -150 396 -297 513 -104 84 -262 149 -411 169 -74
10 -301 10 -374 0 -213 -29 -401 -115 -575 -265 -66 -57 -72 -60 -78 -41 -4
12 -42 56 -86 100 -66 66 -95 86 -181 128 -57 27 -125 54 -153 60 -27 6 -61
14 -75 17 -28 7 -296 15 -301 9z"/>
<path d="M12809 10286 c-2 -2 -35 -7 -72 -10 -295 -27 -597 -160 -810 -356
-208 -192 -350 -442 -393 -690 -3 -14 -7 -32 -9 -40 -17 -61 -25 -306 -14
-420 32 -324 151 -582 369 -800 279 -278 636 -414 1085 -412 449 1 809 142
1089 426 194 197 309 435 352 731 15 99 9 375 -10 475 -40 214 -125 408 -249
567 -41 53 -204 208 -267 255 -183 135 -420 228 -670 263 -50 7 -395 16 -401
11z m322 -753 c281 -96 435 -399 379 -746 -36 -226 -164 -393 -362 -469 -39
-15 -84 -21 -171 -24 -106 -4 -126 -1 -193 21 -96 32 -145 64 -220 141 -116
120 -169 274 -167 484 2 169 50 309 142 420 52 63 58 68 126 113 53 35 114 61
180 75 65 15 223 6 286 -15z"/>
<path d="M8280 7218 c-269 -27 -490 -114 -695 -273 -259 -202 -380 -428 -391
-730 -16 -444 265 -750 876 -954 52 -18 102 -35 110 -38 8 -3 20 -7 25 -8 30
-7 177 -73 227 -102 84 -49 114 -78 144 -139 22 -44 27 -69 27 -132 1 -120
-46 -191 -165 -250 -89 -43 -169 -56 -296 -49 -212 12 -393 99 -569 273 l-72
72 -98 -112 c-54 -61 -100 -113 -103 -116 -3 -3 -39 -43 -80 -90 -41 -47 -81
-92 -90 -101 -44 -46 -115 -134 -115 -143 0 -15 129 -122 224 -184 201 -132
487 -240 706 -267 28 -4 57 -8 65 -10 65 -17 365 -24 485 -12 358 37 705 223
862 462 112 171 154 341 149 595 -4 163 -29 271 -88 380 -108 203 -372 383
-763 525 -395 142 -525 225 -571 360 -50 145 47 281 239 339 46 14 223 16 272
3 88 -22 120 -34 190 -67 76 -36 236 -142 243 -161 6 -15 29 -10 43 10 13 18
208 251 219 261 3 3 30 34 60 70 30 36 60 70 65 76 25 27 91 108 97 118 10 17
-131 117 -274 195 -281 153 -651 229 -958 199z"/>
<path d="M13227 7224 c-1 -1 -45 -4 -97 -8 -487 -33 -905 -242 -1199 -601 -88
-106 -162 -221 -211 -325 -57 -120 -116 -304 -135 -420 -4 -25 -9 -54 -11 -64
-26 -141 -21 -429 10 -601 24 -131 26 -136 63 -245 161 -476 541 -855 1018
-1017 454 -154 1044 -123 1445 76 130 65 240 134 240 151 0 7 -366 559 -388
586 -5 5 -14 19 -20 30 -29 50 -28 49 -79 8 -121 -98 -256 -163 -373 -180 -19
-2 -46 -7 -59 -10 -29 -6 -177 -5 -241 1 -76 9 -202 46 -274 82 -235 116 -427
383 -472 658 -11 63 -11 303 0 370 12 75 63 222 103 295 159 293 426 452 758
453 213 1 384 -54 540 -173 36 -29 68 -50 70 -48 18 19 435 650 435 657 0 15
-98 75 -222 138 -123 62 -306 124 -434 149 -90 17 -112 20 -219 30 -53 5 -244
11 -248 8z"/>
<path d="M681 7120 c-4 -8 -6 -730 -6 -1605 l1 -1590 764 0 c679 0 851 4 925
19 206 43 344 97 475 186 181 123 298 285 351 485 29 114 31 318 4 440 -64
283 -260 481 -579 586 l-98 32 57 24 c210 89 355 261 399 473 20 97 16 301 -8
385 -38 135 -126 274 -219 347 -23 18 -44 35 -47 39 -17 21 -170 96 -255 124
-112 38 -159 47 -300 61 -38 4 -382 7 -763 8 -608 1 -695 -1 -701 -14z m1286
-583 c110 -29 159 -61 208 -138 69 -107 48 -314 -39 -401 -88 -87 -173 -110
-418 -113 l-188 -3 0 337 0 337 188 -1 c135 -2 204 -7 249 -18z m20 -1223
c121 -28 207 -73 267 -142 57 -65 86 -151 87 -259 2 -232 -145 -380 -406 -409
-33 -3 -136 -7 -230 -7 l-170 0 -3 417 -2 417 199 -2 c126 -1 221 -6 258 -15z"/>
<path d="M4734 7125 c-7 -5 -24 -39 -37 -75 -62 -161 -179 -458 -191 -485 -8
-16 -22 -52 -32 -80 -10 -27 -24 -61 -31 -75 -7 -14 -13 -31 -13 -38 0 -7 -4
-20 -10 -30 -5 -9 -26 -60 -45 -112 -20 -52 -41 -104 -46 -115 -5 -11 -56
-141 -114 -290 -58 -148 -110 -279 -115 -290 -5 -11 -40 -101 -79 -200 -179
-459 -282 -722 -291 -740 -5 -11 -39 -96 -75 -190 -36 -93 -70 -179 -74 -190
-37 -84 -113 -287 -109 -291 5 -5 909 -7 913 -2 1 2 44 129 96 283 l94 280
597 1 597 1 31 -91 c108 -322 157 -467 162 -471 7 -7 899 -7 906 -1 2 3 -37
107 -86 233 -94 236 -158 399 -318 808 -52 132 -99 249 -104 260 -8 19 -213
540 -422 1075 -54 140 -105 269 -112 285 -7 17 -57 143 -111 280 -54 138 -101
254 -106 259 -12 13 -858 14 -875 1z m443 -2003 c-209 -1 -382 0 -384 2 -4 3
347 1069 373 1136 4 8 93 -244 198 -560 l193 -575 -380 -3z"/>
<path d="M10129 7125 c-4 -51 -3 -3189 2 -3196 5 -8 261 -11 757 -9 l92 0 -2
1607 -3 1607 -422 1 c-275 0 -423 -3 -424 -10z"/>
</g>
</svg>
