<?xml version="1.0" standalone="no"?>
<!DOCTYPE svg PUBLIC "-//W3C//DTD SVG 20010904//EN"
 "http://www.w3.org/TR/2001/REC-SVG-20010904/DTD/svg10.dtd">
<svg version="1.0" xmlns="http://www.w3.org/2000/svg"
 width="1504.000000pt" height="1504.000000pt" viewBox="0 0 1504.000000 1504.000000"
 preserveAspectRatio="xMidYMid meet">
<metadata>
Created by potrace 1.14, written by Peter Selinger 2001-2017
</metadata>
<g transform="translate(0.000000,1504.000000) scale(0.100000,-0.100000)"
fill="#000000" stroke="none">
<path d="M2608 11402 l-48 -3 0 -87 c0 -48 -1 -358 0 -689 l0 -602 -69 52
c-118 89 -301 171 -426 192 -22 3 -62 10 -90 15 -96 16 -286 9 -420 -14 -136
-24 -308 -101 -430 -191 -290 -214 -457 -537 -492 -950 -14 -161 -6 -412 17
-525 6 -30 13 -66 16 -80 14 -74 71 -232 114 -318 82 -160 190 -288 336 -398
118 -89 300 -171 424 -190 19 -3 38 -8 42 -10 12 -8 160 -18 248 -18 296 2
549 97 749 283 24 23 46 40 48 38 2 -3 21 -62 41 -133 l38 -129 362 -3 362 -2
0 1880 0 1880 -32 0 c-232 3 -754 4 -790 2z m-349 -1875 c178 -62 302 -206
350 -405 25 -103 25 -278 0 -375 -56 -218 -218 -380 -419 -419 -162 -32 -311
-2 -435 87 -69 50 -102 85 -150 164 -94 152 -117 395 -55 592 57 184 210 331
388 373 91 21 233 14 321 -17z"/>
<path d="M5128 10285 c-2 -2 -32 -6 -68 -9 -36 -3 -113 -17 -171 -30 -390 -89
-721 -346 -894 -694 -98 -197 -144 -414 -139 -657 9 -489 219 -866 619 -1112
155 -96 377 -175 560 -199 28 -3 53 -8 56 -10 10 -6 200 -17 293 -16 92 0 266
11 275 16 3 2 33 7 66 11 32 3 62 8 65 10 4 2 22 7 40 10 18 3 81 21 139 40
159 52 322 140 448 243 l42 34 -32 26 c-18 15 -34 29 -37 32 -3 3 -25 21 -50
40 -25 19 -47 37 -50 40 -5 5 -373 304 -396 322 -8 5 -31 -8 -64 -36 -118
-101 -278 -158 -445 -160 -187 -1 -304 33 -412 120 -90 73 -176 227 -199 357
l-5 27 940 0 c889 0 941 1 942 18 3 49 -2 315 -6 354 -15 151 -35 251 -76 371
-125 376 -426 667 -814 787 -149 46 -304 68 -482 68 -78 0 -143 -2 -145 -3z
m270 -629 c190 -39 315 -163 371 -365 11 -41 18 -77 16 -80 -7 -7 -1006 -7
-1010 0 -9 14 64 199 99 252 42 63 112 130 163 153 107 51 238 66 361 40z"/>
<path d="M8539 10285 c-2 -2 -17 -5 -34 -8 -200 -33 -383 -147 -503 -315 l-47
-66 -50 156 c-27 86 -53 160 -57 164 -8 7 -718 13 -749 6 -16 -3 -17 -106 -17
-1293 l0 -1289 437 0 437 0 0 743 c1 723 2 744 22 830 60 244 178 351 380 342
118 -4 197 -59 249 -172 55 -119 58 -174 58 -1020 l-1 -723 437 0 437 0 1 706
c0 626 3 760 16 839 18 110 70 228 124 282 99 98 287 120 403 46 74 -46 133
-158 154 -293 4 -25 8 -389 8 -810 l1 -765 435 -3 435 -2 -1 827 c-1 456 -4
855 -7 888 -17 165 -39 272 -80 385 -107 298 -325 478 -647 535 -63 11 -314
14 -380 4 -232 -34 -410 -115 -587 -267 -66 -57 -72 -60 -78 -41 -4 12 -42 56
-86 100 -66 66 -95 86 -181 128 -57 27 -125 54 -153 60 -27 6 -61 14 -75 17
-28 7 -296 15 -301 9z"/>
<path d="M12809 10286 c-2 -2 -35 -7 -72 -10 -481 -44 -910 -339 -1115 -768
-32 -67 -78 -212 -88 -278 -3 -19 -8 -38 -10 -41 -8 -13 -18 -168 -18 -274 0
-105 7 -200 19 -255 2 -14 10 -50 16 -80 45 -216 169 -439 339 -610 279 -278
636 -414 1085 -412 449 1 809 142 1089 426 178 181 296 410 343 669 23 129 23
419 -1 542 -42 212 -127 405 -249 562 -41 53 -204 208 -267 255 -183 135 -420
228 -670 263 -50 7 -395 16 -401 11z m322 -753 c281 -96 435 -399 379 -746
-36 -226 -164 -393 -362 -469 -39 -15 -84 -21 -171 -24 -106 -4 -126 -1 -193
21 -96 32 -145 64 -220 141 -117 121 -170 275 -167 489 5 308 180 545 448 603
65 15 223 6 286 -15z"/>
<path d="M11925 7113 c-285 -52 -433 -121 -591 -278 -153 -152 -245 -328 -283
-545 -3 -19 -5 -105 -5 -190 1 -132 5 -169 27 -250 28 -104 96 -259 127 -290
3 -3 18 -24 34 -47 35 -52 187 -199 221 -215 14 -6 25 -14 25 -18 0 -10 163
-89 228 -110 178 -57 383 -69 597 -35 104 17 341 117 389 165 7 7 -210 346
-248 387 -9 10 -19 7 -48 -17 -87 -72 -206 -109 -334 -105 -140 5 -249 50
-338 139 -49 50 -124 156 -110 156 4 0 1 7 -6 15 -24 29 -48 149 -48 239 -1
308 197 534 485 553 135 9 244 -21 338 -93 34 -26 50 -32 59 -25 7 6 68 94
136 196 141 212 140 184 10 253 -155 83 -321 121 -525 120 -66 -1 -129 -3
-140 -5z"/>
<path d="M1515 7037 c-8 -16 -15 -34 -15 -39 0 -4 -9 -27 -19 -51 -11 -23 -43
-103 -71 -177 -29 -74 -58 -148 -65 -165 -7 -16 -27 -68 -45 -115 -18 -47 -39
-98 -46 -115 -7 -16 -74 -187 -149 -380 -76 -192 -180 -457 -231 -588 -52
-131 -94 -240 -94 -243 0 -2 122 -3 272 -2 l271 3 55 160 c30 88 58 162 63
165 4 3 164 5 355 5 l348 0 55 -167 56 -168 272 0 273 0 -21 53 c-12 28 -27
68 -34 87 -25 70 -217 556 -236 597 -10 24 -19 45 -19 48 0 3 -52 136 -115
296 -63 159 -115 292 -115 295 0 3 -9 24 -19 47 -11 24 -31 72 -44 107 -13 36
-52 135 -86 221 l-62 156 -259 0 -260 1 -15 -31z m394 -835 c59 -178 105 -324
102 -326 -13 -7 -436 -1 -440 7 -7 15 214 668 222 655 4 -7 57 -158 116 -336z"/>
<path d="M3029 7057 c-1 -7 -2 -436 -3 -955 l-1 -942 425 0 c473 1 554 9 723
70 305 111 536 387 585 700 9 61 9 313 -1 375 -13 84 -71 242 -109 297 -10 14
-18 29 -18 33 0 13 -81 108 -138 163 -133 128 -296 209 -502 248 -69 14 -167
17 -522 19 -325 2 -438 0 -439 -8z m827 -430 c141 -30 272 -122 331 -234 48
-90 64 -160 63 -281 0 -226 -88 -381 -265 -467 -89 -43 -189 -61 -335 -60
l-115 0 -2 520 c-1 286 -1 525 1 530 5 15 238 9 322 -8z"/>
<path d="M4880 7063 c0 -5 205 -522 225 -568 7 -16 25 -61 40 -100 15 -38 33
-83 40 -100 7 -16 48 -118 90 -225 42 -107 83 -208 90 -225 7 -16 39 -95 70
-175 31 -80 60 -154 65 -165 6 -11 39 -92 74 -180 l64 -160 220 -3 c170 -2
221 0 225 10 3 7 60 150 126 318 67 168 126 314 131 325 7 14 440 1097 497
1242 3 8 -65 11 -273 10 l-278 -2 -61 -185 c-74 -225 -344 -1025 -357 -1059
-8 -21 -24 20 -104 260 -52 156 -97 291 -101 299 -3 8 -54 159 -113 335 -59
176 -111 327 -115 337 -6 14 -35 16 -281 16 -151 -1 -274 -3 -274 -5z"/>
<path d="M7461 7047 c-10 -20 -72 -177 -191 -482 -24 -60 -83 -210 -132 -332
-48 -123 -88 -225 -88 -229 0 -3 -7 -20 -15 -37 -8 -18 -48 -117 -89 -222 -41
-104 -108 -277 -150 -383 -42 -106 -76 -195 -76 -198 0 -2 122 -3 272 -2 l272
3 56 165 55 165 354 0 354 0 57 -165 56 -165 272 -3 272 -2 -16 42 c-9 24 -22
57 -29 73 -7 17 -27 68 -45 115 -18 47 -38 99 -45 115 -7 17 -33 82 -58 145
-65 167 -138 352 -287 730 -72 184 -163 414 -201 511 l-69 176 -259 0 c-255 1
-259 1 -270 -20z m340 -702 c5 -11 40 -114 78 -230 38 -115 72 -217 76 -226 5
-15 -16 -16 -223 -16 l-229 -1 13 42 c30 99 206 621 211 629 3 5 19 -33 35
-84 17 -52 34 -103 39 -114z"/>
<path d="M8967 7061 c-3 -5 0 -1876 2 -1893 1 -5 109 -8 241 -8 l240 0 2 561
3 561 365 -511 c201 -282 373 -522 383 -534 10 -12 26 -34 35 -49 l16 -28 236
0 235 0 0 952 0 953 -238 2 c-163 1 -239 -2 -243 -9 -4 -6 -7 -261 -7 -565 0
-305 -4 -550 -9 -545 -8 8 -205 282 -602 841 l-199 279 -229 0 c-126 -1 -230
-4 -231 -7z"/>
<path d="M12988 7056 c-2 -6 -4 -434 -3 -951 l0 -940 648 -3 647 -2 0 205 0
205 -394 0 -394 0 1 182 2 183 330 0 330 0 0 183 1 182 -333 0 -333 0 1 180 1
180 394 0 394 0 0 204 0 204 -644 0 c-471 0 -646 -3 -648 -12z"/>
</g>
</svg>
